<mxfile host="app.diagrams.net" modified="2024-05-03T01:12:08.041Z" agent="Mozilla/5.0 (Windows NT 10.0; Win64; x64) AppleWebKit/537.36 (KHTML, like Gecko) Chrome/124.0.0.0 Safari/537.36 Edg/124.0.0.0" etag="_XxEHOmej41585rArtHh" version="24.3.1" type="google">
  <diagram name="Página-1" id="wI0Vt2jAXxSUB1hC3oGG">
    <mxGraphModel grid="1" page="1" gridSize="10" guides="1" tooltips="1" connect="1" arrows="1" fold="1" pageScale="1" pageWidth="827" pageHeight="1169" math="0" shadow="0">
      <root>
        <mxCell id="0" />
        <mxCell id="1" parent="0" />
        <mxCell id="246zIahvShKQUwR7lKEW-3" value="" style="edgeStyle=orthogonalEdgeStyle;rounded=0;orthogonalLoop=1;jettySize=auto;html=1;" edge="1" parent="1" source="246zIahvShKQUwR7lKEW-1" target="246zIahvShKQUwR7lKEW-2">
          <mxGeometry relative="1" as="geometry" />
        </mxCell>
        <mxCell id="246zIahvShKQUwR7lKEW-1" value="INICIO" style="ellipse;whiteSpace=wrap;html=1;" vertex="1" parent="1">
          <mxGeometry x="60" y="50" width="80" height="80" as="geometry" />
        </mxCell>
        <mxCell id="246zIahvShKQUwR7lKEW-5" value="" style="edgeStyle=orthogonalEdgeStyle;rounded=0;orthogonalLoop=1;jettySize=auto;html=1;" edge="1" parent="1" source="246zIahvShKQUwR7lKEW-2" target="246zIahvShKQUwR7lKEW-4">
          <mxGeometry relative="1" as="geometry" />
        </mxCell>
        <mxCell id="246zIahvShKQUwR7lKEW-2" value="INPUT&amp;nbsp;&lt;div&gt;debut, fin&lt;/div&gt;" style="shape=parallelogram;perimeter=parallelogramPerimeter;whiteSpace=wrap;html=1;fixedSize=1;" vertex="1" parent="1">
          <mxGeometry x="40" y="150" width="120" height="60" as="geometry" />
        </mxCell>
        <mxCell id="246zIahvShKQUwR7lKEW-7" value="" style="edgeStyle=orthogonalEdgeStyle;rounded=0;orthogonalLoop=1;jettySize=auto;html=1;" edge="1" parent="1" source="246zIahvShKQUwR7lKEW-4" target="246zIahvShKQUwR7lKEW-6">
          <mxGeometry relative="1" as="geometry" />
        </mxCell>
        <mxCell id="246zIahvShKQUwR7lKEW-4" value="Declarando&lt;div&gt;hours1,hours2,hours3, tarifa1,tarifa2,tarifa3&lt;/div&gt;" style="whiteSpace=wrap;html=1;" vertex="1" parent="1">
          <mxGeometry x="30" y="240" width="140" height="60" as="geometry" />
        </mxCell>
        <mxCell id="246zIahvShKQUwR7lKEW-9" value="" style="edgeStyle=orthogonalEdgeStyle;rounded=0;orthogonalLoop=1;jettySize=auto;html=1;" edge="1" parent="1" source="246zIahvShKQUwR7lKEW-6" target="246zIahvShKQUwR7lKEW-8">
          <mxGeometry relative="1" as="geometry" />
        </mxCell>
        <mxCell id="246zIahvShKQUwR7lKEW-12" value="" style="edgeStyle=orthogonalEdgeStyle;rounded=0;orthogonalLoop=1;jettySize=auto;html=1;" edge="1" parent="1" source="246zIahvShKQUwR7lKEW-6" target="246zIahvShKQUwR7lKEW-11">
          <mxGeometry relative="1" as="geometry" />
        </mxCell>
        <mxCell id="246zIahvShKQUwR7lKEW-6" value="debut==fin" style="rhombus;whiteSpace=wrap;html=1;" vertex="1" parent="1">
          <mxGeometry x="60" y="330" width="80" height="80" as="geometry" />
        </mxCell>
        <mxCell id="246zIahvShKQUwR7lKEW-91" value="" style="edgeStyle=orthogonalEdgeStyle;rounded=0;orthogonalLoop=1;jettySize=auto;html=1;" edge="1" parent="1" source="246zIahvShKQUwR7lKEW-8" target="246zIahvShKQUwR7lKEW-90">
          <mxGeometry relative="1" as="geometry" />
        </mxCell>
        <mxCell id="246zIahvShKQUwR7lKEW-8" value="OUTPUT&lt;div&gt;&quot;Que extraño, no has&lt;/div&gt;&lt;div&gt;&amp;nbsp;alquilado tu bicicleta por&lt;/div&gt;&lt;div&gt;&amp;nbsp;mucho tiempo!&quot;&lt;br&gt;&lt;/div&gt;" style="shape=parallelogram;perimeter=parallelogramPerimeter;whiteSpace=wrap;html=1;fixedSize=1;" vertex="1" parent="1">
          <mxGeometry x="180" y="340" width="180" height="60" as="geometry" />
        </mxCell>
        <mxCell id="246zIahvShKQUwR7lKEW-10" value="SI" style="text;html=1;align=center;verticalAlign=middle;resizable=0;points=[];autosize=1;strokeColor=none;fillColor=none;" vertex="1" parent="1">
          <mxGeometry x="140" y="340" width="30" height="30" as="geometry" />
        </mxCell>
        <mxCell id="246zIahvShKQUwR7lKEW-15" value="" style="edgeStyle=orthogonalEdgeStyle;rounded=0;orthogonalLoop=1;jettySize=auto;html=1;" edge="1" parent="1" source="246zIahvShKQUwR7lKEW-11" target="246zIahvShKQUwR7lKEW-14">
          <mxGeometry relative="1" as="geometry" />
        </mxCell>
        <mxCell id="246zIahvShKQUwR7lKEW-19" value="" style="edgeStyle=orthogonalEdgeStyle;rounded=0;orthogonalLoop=1;jettySize=auto;html=1;" edge="1" parent="1" source="246zIahvShKQUwR7lKEW-11" target="246zIahvShKQUwR7lKEW-18">
          <mxGeometry relative="1" as="geometry" />
        </mxCell>
        <mxCell id="246zIahvShKQUwR7lKEW-11" value="debut &amp;gt; 24&amp;nbsp;&lt;div&gt;or fin &amp;gt; 24&amp;nbsp;&lt;div&gt;or debut &amp;lt; 0 or fin &amp;lt; 0&lt;/div&gt;&lt;/div&gt;" style="rhombus;whiteSpace=wrap;html=1;" vertex="1" parent="1">
          <mxGeometry x="2.5" y="430" width="195" height="130" as="geometry" />
        </mxCell>
        <mxCell id="246zIahvShKQUwR7lKEW-13" value="NO" style="text;html=1;align=center;verticalAlign=middle;resizable=0;points=[];autosize=1;strokeColor=none;fillColor=none;" vertex="1" parent="1">
          <mxGeometry x="100" y="398" width="40" height="30" as="geometry" />
        </mxCell>
        <mxCell id="246zIahvShKQUwR7lKEW-31" value="" style="edgeStyle=orthogonalEdgeStyle;rounded=0;orthogonalLoop=1;jettySize=auto;html=1;" edge="1" parent="1" source="246zIahvShKQUwR7lKEW-14" target="246zIahvShKQUwR7lKEW-30">
          <mxGeometry relative="1" as="geometry" />
        </mxCell>
        <mxCell id="246zIahvShKQUwR7lKEW-14" value="OUTPUT&lt;div&gt;&quot;Las horas deben estar&amp;nbsp;&lt;/div&gt;&lt;div&gt;entre 0 y 24!&quot;&lt;br&gt;&lt;/div&gt;" style="shape=parallelogram;perimeter=parallelogramPerimeter;whiteSpace=wrap;html=1;fixedSize=1;" vertex="1" parent="1">
          <mxGeometry x="210" y="465" width="160" height="60" as="geometry" />
        </mxCell>
        <mxCell id="246zIahvShKQUwR7lKEW-16" value="SI" style="text;html=1;align=center;verticalAlign=middle;resizable=0;points=[];autosize=1;strokeColor=none;fillColor=none;" vertex="1" parent="1">
          <mxGeometry x="185" y="458" width="30" height="30" as="geometry" />
        </mxCell>
        <mxCell id="246zIahvShKQUwR7lKEW-17" value="NO" style="text;html=1;align=center;verticalAlign=middle;resizable=0;points=[];autosize=1;strokeColor=none;fillColor=none;" vertex="1" parent="1">
          <mxGeometry x="110" y="548" width="40" height="30" as="geometry" />
        </mxCell>
        <mxCell id="246zIahvShKQUwR7lKEW-21" value="" style="edgeStyle=orthogonalEdgeStyle;rounded=0;orthogonalLoop=1;jettySize=auto;html=1;" edge="1" parent="1" source="246zIahvShKQUwR7lKEW-18" target="246zIahvShKQUwR7lKEW-20">
          <mxGeometry relative="1" as="geometry" />
        </mxCell>
        <mxCell id="246zIahvShKQUwR7lKEW-24" value="" style="edgeStyle=orthogonalEdgeStyle;rounded=0;orthogonalLoop=1;jettySize=auto;html=1;" edge="1" parent="1" source="246zIahvShKQUwR7lKEW-18" target="246zIahvShKQUwR7lKEW-23">
          <mxGeometry relative="1" as="geometry" />
        </mxCell>
        <mxCell id="246zIahvShKQUwR7lKEW-18" value="debut &amp;gt; fin" style="rhombus;whiteSpace=wrap;html=1;" vertex="1" parent="1">
          <mxGeometry x="31.25" y="610" width="137.5" height="80" as="geometry" />
        </mxCell>
        <mxCell id="246zIahvShKQUwR7lKEW-29" value="" style="edgeStyle=orthogonalEdgeStyle;rounded=0;orthogonalLoop=1;jettySize=auto;html=1;" edge="1" parent="1" source="246zIahvShKQUwR7lKEW-20" target="246zIahvShKQUwR7lKEW-28">
          <mxGeometry relative="1" as="geometry" />
        </mxCell>
        <mxCell id="246zIahvShKQUwR7lKEW-20" value="OUTPUT&lt;div&gt;&quot;Que extraño, el inicio del&lt;/div&gt;&lt;div&gt;&amp;nbsp;alquiler es después del&lt;/div&gt;&lt;div&gt;&amp;nbsp;final...&quot;&lt;br&gt;&lt;/div&gt;" style="shape=parallelogram;perimeter=parallelogramPerimeter;whiteSpace=wrap;html=1;fixedSize=1;" vertex="1" parent="1">
          <mxGeometry x="187.5" y="620" width="172.5" height="60" as="geometry" />
        </mxCell>
        <mxCell id="246zIahvShKQUwR7lKEW-22" value="SI" style="text;html=1;align=center;verticalAlign=middle;resizable=0;points=[];autosize=1;strokeColor=none;fillColor=none;" vertex="1" parent="1">
          <mxGeometry x="155" y="618" width="30" height="30" as="geometry" />
        </mxCell>
        <mxCell id="246zIahvShKQUwR7lKEW-26" value="" style="edgeStyle=orthogonalEdgeStyle;rounded=0;orthogonalLoop=1;jettySize=auto;html=1;" edge="1" parent="1" source="246zIahvShKQUwR7lKEW-23" target="246zIahvShKQUwR7lKEW-25">
          <mxGeometry relative="1" as="geometry" />
        </mxCell>
        <mxCell id="246zIahvShKQUwR7lKEW-34" value="" style="edgeStyle=orthogonalEdgeStyle;rounded=0;orthogonalLoop=1;jettySize=auto;html=1;" edge="1" parent="1" source="246zIahvShKQUwR7lKEW-23" target="246zIahvShKQUwR7lKEW-33">
          <mxGeometry relative="1" as="geometry" />
        </mxCell>
        <mxCell id="246zIahvShKQUwR7lKEW-23" value="debut &amp;gt;=0 and debut &amp;lt;= 24&amp;nbsp;&lt;div&gt;and fin &amp;gt;=0 and fin &amp;lt;=24&lt;/div&gt;" style="rhombus;whiteSpace=wrap;html=1;" vertex="1" parent="1">
          <mxGeometry y="720" width="200" height="110" as="geometry" />
        </mxCell>
        <mxCell id="246zIahvShKQUwR7lKEW-25" value="FIN" style="ellipse;whiteSpace=wrap;html=1;" vertex="1" parent="1">
          <mxGeometry x="233.75" y="735" width="80" height="80" as="geometry" />
        </mxCell>
        <mxCell id="246zIahvShKQUwR7lKEW-27" value="NO" style="text;html=1;align=center;verticalAlign=middle;resizable=0;points=[];autosize=1;strokeColor=none;fillColor=none;" vertex="1" parent="1">
          <mxGeometry x="180" y="738" width="40" height="30" as="geometry" />
        </mxCell>
        <mxCell id="246zIahvShKQUwR7lKEW-28" value="FIN" style="ellipse;whiteSpace=wrap;html=1;" vertex="1" parent="1">
          <mxGeometry x="380" y="610" width="80" height="80" as="geometry" />
        </mxCell>
        <mxCell id="246zIahvShKQUwR7lKEW-30" value="FIN" style="ellipse;whiteSpace=wrap;html=1;" vertex="1" parent="1">
          <mxGeometry x="380" y="455" width="80" height="80" as="geometry" />
        </mxCell>
        <mxCell id="246zIahvShKQUwR7lKEW-32" value="NO" style="text;html=1;align=center;verticalAlign=middle;resizable=0;points=[];autosize=1;strokeColor=none;fillColor=none;" vertex="1" parent="1">
          <mxGeometry x="100" y="688" width="40" height="30" as="geometry" />
        </mxCell>
        <mxCell id="246zIahvShKQUwR7lKEW-37" value="" style="edgeStyle=orthogonalEdgeStyle;rounded=0;orthogonalLoop=1;jettySize=auto;html=1;" edge="1" parent="1" source="246zIahvShKQUwR7lKEW-33" target="246zIahvShKQUwR7lKEW-36">
          <mxGeometry relative="1" as="geometry" />
        </mxCell>
        <mxCell id="246zIahvShKQUwR7lKEW-46" value="" style="edgeStyle=orthogonalEdgeStyle;rounded=0;orthogonalLoop=1;jettySize=auto;html=1;" edge="1" parent="1" source="246zIahvShKQUwR7lKEW-33" target="246zIahvShKQUwR7lKEW-45">
          <mxGeometry relative="1" as="geometry" />
        </mxCell>
        <mxCell id="246zIahvShKQUwR7lKEW-33" value="debut &amp;lt;= 7 and fin &amp;lt;= 7" style="rhombus;whiteSpace=wrap;html=1;" vertex="1" parent="1">
          <mxGeometry x="25" y="870" width="150" height="90" as="geometry" />
        </mxCell>
        <mxCell id="246zIahvShKQUwR7lKEW-35" value="SI" style="text;html=1;align=center;verticalAlign=middle;resizable=0;points=[];autosize=1;strokeColor=none;fillColor=none;" vertex="1" parent="1">
          <mxGeometry x="115" y="828" width="30" height="30" as="geometry" />
        </mxCell>
        <mxCell id="246zIahvShKQUwR7lKEW-43" value="" style="edgeStyle=orthogonalEdgeStyle;rounded=0;orthogonalLoop=1;jettySize=auto;html=1;" edge="1" parent="1" source="246zIahvShKQUwR7lKEW-36" target="246zIahvShKQUwR7lKEW-42">
          <mxGeometry relative="1" as="geometry" />
        </mxCell>
        <mxCell id="246zIahvShKQUwR7lKEW-36" value="hours1 = fin-debut&lt;div&gt;tarifa1 = hours1 *1&lt;/div&gt;" style="whiteSpace=wrap;html=1;" vertex="1" parent="1">
          <mxGeometry x="210" y="885" width="120" height="60" as="geometry" />
        </mxCell>
        <mxCell id="246zIahvShKQUwR7lKEW-41" value="SI" style="text;html=1;align=center;verticalAlign=middle;resizable=0;points=[];autosize=1;strokeColor=none;fillColor=none;" vertex="1" parent="1">
          <mxGeometry x="165" y="868" width="30" height="30" as="geometry" />
        </mxCell>
        <mxCell id="246zIahvShKQUwR7lKEW-93" value="" style="edgeStyle=orthogonalEdgeStyle;rounded=0;orthogonalLoop=1;jettySize=auto;html=1;" edge="1" parent="1" source="246zIahvShKQUwR7lKEW-42" target="246zIahvShKQUwR7lKEW-92">
          <mxGeometry relative="1" as="geometry" />
        </mxCell>
        <mxCell id="246zIahvShKQUwR7lKEW-42" value="&lt;div&gt;OUTPUT&lt;/div&gt;&quot;Haz alquilado una bicicleta por&quot;&lt;div&gt;hours1, &quot; hora(s) con el tarifario de 1 boliviano(s)&quot;&lt;br&gt;&lt;/div&gt;&lt;div&gt;&quot;El monto total a pagar es de &quot; , tarifa1,&quot; boliviano(s).&quot;&lt;br&gt;&lt;/div&gt;" style="shape=parallelogram;perimeter=parallelogramPerimeter;whiteSpace=wrap;html=1;fixedSize=1;" vertex="1" parent="1">
          <mxGeometry x="370" y="885" width="340" height="60" as="geometry" />
        </mxCell>
        <mxCell id="246zIahvShKQUwR7lKEW-44" value="NO" style="text;html=1;align=center;verticalAlign=middle;resizable=0;points=[];autosize=1;strokeColor=none;fillColor=none;" vertex="1" parent="1">
          <mxGeometry x="120" y="948" width="40" height="30" as="geometry" />
        </mxCell>
        <mxCell id="246zIahvShKQUwR7lKEW-48" value="" style="edgeStyle=orthogonalEdgeStyle;rounded=0;orthogonalLoop=1;jettySize=auto;html=1;" edge="1" parent="1" source="246zIahvShKQUwR7lKEW-45" target="246zIahvShKQUwR7lKEW-47">
          <mxGeometry relative="1" as="geometry" />
        </mxCell>
        <mxCell id="246zIahvShKQUwR7lKEW-54" value="" style="edgeStyle=orthogonalEdgeStyle;rounded=0;orthogonalLoop=1;jettySize=auto;html=1;" edge="1" parent="1" source="246zIahvShKQUwR7lKEW-45" target="246zIahvShKQUwR7lKEW-53">
          <mxGeometry relative="1" as="geometry" />
        </mxCell>
        <mxCell id="246zIahvShKQUwR7lKEW-45" value="debut &amp;lt;= 17 and&amp;nbsp;&lt;div&gt;debut &amp;gt;= 7 and fin &amp;gt;= 7 and&lt;/div&gt;&lt;div&gt;&amp;nbsp;fin &amp;lt;= 17&lt;/div&gt;" style="rhombus;whiteSpace=wrap;html=1;" vertex="1" parent="1">
          <mxGeometry x="9" y="1010" width="182" height="100" as="geometry" />
        </mxCell>
        <mxCell id="246zIahvShKQUwR7lKEW-51" value="" style="edgeStyle=orthogonalEdgeStyle;rounded=0;orthogonalLoop=1;jettySize=auto;html=1;" edge="1" parent="1" source="246zIahvShKQUwR7lKEW-47" target="246zIahvShKQUwR7lKEW-50">
          <mxGeometry relative="1" as="geometry" />
        </mxCell>
        <mxCell id="246zIahvShKQUwR7lKEW-47" value="&lt;div&gt;hours1 = fin - debut&lt;/div&gt;&lt;div&gt;&amp;nbsp;tarifa1 = hours1 * 2&lt;/div&gt;" style="whiteSpace=wrap;html=1;" vertex="1" parent="1">
          <mxGeometry x="220" y="1030" width="140" height="60" as="geometry" />
        </mxCell>
        <mxCell id="246zIahvShKQUwR7lKEW-49" value="SI" style="text;html=1;align=center;verticalAlign=middle;resizable=0;points=[];autosize=1;strokeColor=none;fillColor=none;" vertex="1" parent="1">
          <mxGeometry x="175" y="1028" width="30" height="30" as="geometry" />
        </mxCell>
        <mxCell id="246zIahvShKQUwR7lKEW-95" value="" style="edgeStyle=orthogonalEdgeStyle;rounded=0;orthogonalLoop=1;jettySize=auto;html=1;" edge="1" parent="1" source="246zIahvShKQUwR7lKEW-50" target="246zIahvShKQUwR7lKEW-94">
          <mxGeometry relative="1" as="geometry" />
        </mxCell>
        <mxCell id="246zIahvShKQUwR7lKEW-50" value="OUTPUT&lt;div&gt;&lt;span style=&quot;background-color: initial;&quot;&gt;&quot;Haz alquilado una bicicleta por&quot;&amp;nbsp;&lt;/span&gt;&lt;div&gt;&lt;div&gt;hours1 , &quot; hora(s) con el tarifario de 2 boliviano(s)&quot;&amp;nbsp;&lt;/div&gt;&lt;div&gt;&lt;span style=&quot;background-color: initial;&quot;&gt;&quot;El monto total a pagar es de &quot; , tarifa1 , &quot; boliviano(s).&quot;&lt;/span&gt;&lt;/div&gt;&lt;/div&gt;&lt;/div&gt;" style="shape=parallelogram;perimeter=parallelogramPerimeter;whiteSpace=wrap;html=1;fixedSize=1;" vertex="1" parent="1">
          <mxGeometry x="380" y="1030" width="340" height="60" as="geometry" />
        </mxCell>
        <mxCell id="246zIahvShKQUwR7lKEW-52" value="NO" style="text;html=1;align=center;verticalAlign=middle;resizable=0;points=[];autosize=1;strokeColor=none;fillColor=none;" vertex="1" parent="1">
          <mxGeometry x="110" y="1110" width="40" height="30" as="geometry" />
        </mxCell>
        <mxCell id="246zIahvShKQUwR7lKEW-57" value="" style="edgeStyle=orthogonalEdgeStyle;rounded=0;orthogonalLoop=1;jettySize=auto;html=1;" edge="1" parent="1" source="246zIahvShKQUwR7lKEW-53" target="246zIahvShKQUwR7lKEW-56">
          <mxGeometry relative="1" as="geometry" />
        </mxCell>
        <mxCell id="246zIahvShKQUwR7lKEW-62" value="" style="edgeStyle=orthogonalEdgeStyle;rounded=0;orthogonalLoop=1;jettySize=auto;html=1;" edge="1" parent="1" source="246zIahvShKQUwR7lKEW-53" target="246zIahvShKQUwR7lKEW-61">
          <mxGeometry relative="1" as="geometry" />
        </mxCell>
        <mxCell id="246zIahvShKQUwR7lKEW-53" value="debut &amp;lt;= 24 and&amp;nbsp;&lt;div&gt;debut &amp;gt;= 17 and fin &amp;gt;= 17&amp;nbsp;&lt;/div&gt;&lt;div&gt;and fin &amp;lt;= 24&lt;/div&gt;" style="rhombus;whiteSpace=wrap;html=1;" vertex="1" parent="1">
          <mxGeometry x="14" y="1169" width="171" height="110" as="geometry" />
        </mxCell>
        <mxCell id="246zIahvShKQUwR7lKEW-60" value="" style="edgeStyle=orthogonalEdgeStyle;rounded=0;orthogonalLoop=1;jettySize=auto;html=1;" edge="1" parent="1" source="246zIahvShKQUwR7lKEW-56" target="246zIahvShKQUwR7lKEW-59">
          <mxGeometry relative="1" as="geometry" />
        </mxCell>
        <mxCell id="246zIahvShKQUwR7lKEW-56" value="&lt;div&gt;hours1 = fin - debut&lt;/div&gt;&lt;div&gt;&lt;span style=&quot;background-color: initial;&quot;&gt;tarifa1 = hours1 * 1&lt;/span&gt;&lt;/div&gt;" style="whiteSpace=wrap;html=1;" vertex="1" parent="1">
          <mxGeometry x="220" y="1194" width="126.25" height="60" as="geometry" />
        </mxCell>
        <mxCell id="246zIahvShKQUwR7lKEW-58" value="SI" style="text;html=1;align=center;verticalAlign=middle;resizable=0;points=[];autosize=1;strokeColor=none;fillColor=none;" vertex="1" parent="1">
          <mxGeometry x="185" y="1188" width="30" height="30" as="geometry" />
        </mxCell>
        <mxCell id="246zIahvShKQUwR7lKEW-97" value="" style="edgeStyle=orthogonalEdgeStyle;rounded=0;orthogonalLoop=1;jettySize=auto;html=1;" edge="1" parent="1" source="246zIahvShKQUwR7lKEW-59" target="246zIahvShKQUwR7lKEW-96">
          <mxGeometry relative="1" as="geometry" />
        </mxCell>
        <mxCell id="246zIahvShKQUwR7lKEW-59" value="OUTPUT&lt;div&gt;&lt;div&gt;&quot;Haz alquilado una bicicleta por&quot;&lt;/div&gt;&lt;div&gt;&lt;span style=&quot;background-color: initial;&quot;&gt;hours1, &quot; hora(s) con el tarifario de 1 boliviano(s)&quot;&lt;/span&gt;&lt;/div&gt;&lt;div&gt;&lt;span style=&quot;background-color: initial;&quot;&gt;&quot;El monto total a pagar es de &quot; , tarifa1 , &quot; boliviano(s).&quot;&amp;nbsp;&lt;/span&gt;&lt;/div&gt;&lt;/div&gt;" style="shape=parallelogram;perimeter=parallelogramPerimeter;whiteSpace=wrap;html=1;fixedSize=1;" vertex="1" parent="1">
          <mxGeometry x="370.01" y="1194" width="329.99" height="60" as="geometry" />
        </mxCell>
        <mxCell id="246zIahvShKQUwR7lKEW-66" value="" style="edgeStyle=orthogonalEdgeStyle;rounded=0;orthogonalLoop=1;jettySize=auto;html=1;" edge="1" parent="1" source="246zIahvShKQUwR7lKEW-61" target="246zIahvShKQUwR7lKEW-65">
          <mxGeometry relative="1" as="geometry" />
        </mxCell>
        <mxCell id="246zIahvShKQUwR7lKEW-70" value="" style="edgeStyle=orthogonalEdgeStyle;rounded=0;orthogonalLoop=1;jettySize=auto;html=1;" edge="1" parent="1" source="246zIahvShKQUwR7lKEW-61" target="246zIahvShKQUwR7lKEW-69">
          <mxGeometry relative="1" as="geometry" />
        </mxCell>
        <mxCell id="246zIahvShKQUwR7lKEW-61" value="debut &amp;lt;= 7 and fin &amp;gt;= 7&amp;nbsp;&lt;div&gt;and fin &amp;lt;= 17&lt;br&gt;&lt;/div&gt;" style="rhombus;whiteSpace=wrap;html=1;" vertex="1" parent="1">
          <mxGeometry x="7.5" y="1330" width="183.5" height="101" as="geometry" />
        </mxCell>
        <mxCell id="246zIahvShKQUwR7lKEW-63" value="NO" style="text;html=1;align=center;verticalAlign=middle;resizable=0;points=[];autosize=1;strokeColor=none;fillColor=none;" vertex="1" parent="1">
          <mxGeometry x="110" y="1288" width="40" height="30" as="geometry" />
        </mxCell>
        <mxCell id="246zIahvShKQUwR7lKEW-64" value="SI" style="text;html=1;align=center;verticalAlign=middle;resizable=0;points=[];autosize=1;strokeColor=none;fillColor=none;" vertex="1" parent="1">
          <mxGeometry x="175" y="1338" width="30" height="30" as="geometry" />
        </mxCell>
        <mxCell id="246zIahvShKQUwR7lKEW-68" value="" style="edgeStyle=orthogonalEdgeStyle;rounded=0;orthogonalLoop=1;jettySize=auto;html=1;entryX=0;entryY=0.5;entryDx=0;entryDy=0;" edge="1" parent="1" source="246zIahvShKQUwR7lKEW-65" target="246zIahvShKQUwR7lKEW-67">
          <mxGeometry relative="1" as="geometry" />
        </mxCell>
        <mxCell id="246zIahvShKQUwR7lKEW-65" value="&lt;div&gt;hours1 = 7-debut&lt;/div&gt;&lt;div&gt;&lt;span style=&quot;background-color: initial;&quot;&gt;tarifa1 = hours1 * 1&lt;/span&gt;&lt;/div&gt;&lt;div&gt;&lt;span style=&quot;background-color: initial;&quot;&gt;hours2 = (fin-debut) - hours1&lt;/span&gt;&lt;/div&gt;&lt;div&gt;&lt;span style=&quot;background-color: initial;&quot;&gt;tarifa2 = hours2 * 2&lt;/span&gt;&lt;/div&gt;" style="whiteSpace=wrap;html=1;" vertex="1" parent="1">
          <mxGeometry x="215" y="1350.5" width="165" height="60" as="geometry" />
        </mxCell>
        <mxCell id="246zIahvShKQUwR7lKEW-99" value="" style="edgeStyle=orthogonalEdgeStyle;rounded=0;orthogonalLoop=1;jettySize=auto;html=1;" edge="1" parent="1" source="246zIahvShKQUwR7lKEW-67" target="246zIahvShKQUwR7lKEW-98">
          <mxGeometry relative="1" as="geometry" />
        </mxCell>
        <mxCell id="246zIahvShKQUwR7lKEW-67" value="OUTPUT&lt;div&gt;&lt;div&gt;&quot;Haz alquilado una bicicleta por&quot;&lt;/div&gt;&lt;div&gt;&lt;span style=&quot;background-color: initial;&quot;&gt;hours1 , &quot; hora(s) con el tarifario de 1 boliviano(s)&quot;&lt;/span&gt;&lt;/div&gt;&lt;div&gt;&lt;span style=&quot;background-color: initial;&quot;&gt;hours2 , &quot; hora(s) con el tarifario de 2 boliviano(s)&quot;&lt;/span&gt;&lt;/div&gt;&lt;div&gt;&lt;span style=&quot;background-color: initial;&quot;&gt;&quot;El monto total a pagar es de &quot; , tarifa1 + tarifa2 , &quot; boliviano(s).&quot;&lt;/span&gt;&lt;/div&gt;&lt;/div&gt;" style="shape=parallelogram;perimeter=parallelogramPerimeter;whiteSpace=wrap;html=1;fixedSize=1;" vertex="1" parent="1">
          <mxGeometry x="387" y="1340.75" width="380" height="79.5" as="geometry" />
        </mxCell>
        <mxCell id="246zIahvShKQUwR7lKEW-73" value="" style="edgeStyle=orthogonalEdgeStyle;rounded=0;orthogonalLoop=1;jettySize=auto;html=1;" edge="1" parent="1" source="246zIahvShKQUwR7lKEW-69" target="246zIahvShKQUwR7lKEW-72">
          <mxGeometry relative="1" as="geometry" />
        </mxCell>
        <mxCell id="246zIahvShKQUwR7lKEW-78" value="" style="edgeStyle=orthogonalEdgeStyle;rounded=0;orthogonalLoop=1;jettySize=auto;html=1;" edge="1" parent="1" source="246zIahvShKQUwR7lKEW-69" target="246zIahvShKQUwR7lKEW-77">
          <mxGeometry relative="1" as="geometry" />
        </mxCell>
        <mxCell id="246zIahvShKQUwR7lKEW-69" value="debut &amp;lt;= 7 and fin &amp;gt;= 17&amp;nbsp;&lt;div&gt;and fin &amp;lt;= 24&lt;/div&gt;" style="rhombus;whiteSpace=wrap;html=1;" vertex="1" parent="1">
          <mxGeometry x="2.5" y="1480" width="192.5" height="89" as="geometry" />
        </mxCell>
        <mxCell id="246zIahvShKQUwR7lKEW-71" value="NO" style="text;html=1;align=center;verticalAlign=middle;resizable=0;points=[];autosize=1;strokeColor=none;fillColor=none;" vertex="1" parent="1">
          <mxGeometry x="100" y="1438" width="40" height="30" as="geometry" />
        </mxCell>
        <mxCell id="246zIahvShKQUwR7lKEW-76" value="" style="edgeStyle=orthogonalEdgeStyle;rounded=0;orthogonalLoop=1;jettySize=auto;html=1;" edge="1" parent="1" source="246zIahvShKQUwR7lKEW-72" target="246zIahvShKQUwR7lKEW-75">
          <mxGeometry relative="1" as="geometry" />
        </mxCell>
        <mxCell id="246zIahvShKQUwR7lKEW-72" value="&lt;div&gt;&lt;span style=&quot;background-color: initial;&quot;&gt;tarifa1 = (7-debut) * 1&lt;/span&gt;&lt;br&gt;&lt;/div&gt;&lt;div&gt;&lt;span style=&quot;background-color: initial;&quot;&gt;tarifa2 = (fin-17) * 1&lt;/span&gt;&lt;/div&gt;&lt;div&gt;&lt;span style=&quot;background-color: initial;&quot;&gt;hours1 = (7-debut) + (fin-17)&lt;/span&gt;&lt;/div&gt;&lt;div&gt;&lt;span style=&quot;background-color: initial;&quot;&gt;hours2 = (fin - debut) - hours1&lt;/span&gt;&lt;/div&gt;&lt;div&gt;&lt;span style=&quot;background-color: initial;&quot;&gt;tarifa3 = hours2 * 2&lt;/span&gt;&lt;/div&gt;" style="whiteSpace=wrap;html=1;" vertex="1" parent="1">
          <mxGeometry x="220" y="1476.75" width="190" height="95.5" as="geometry" />
        </mxCell>
        <mxCell id="246zIahvShKQUwR7lKEW-74" value="SI" style="text;html=1;align=center;verticalAlign=middle;resizable=0;points=[];autosize=1;strokeColor=none;fillColor=none;" vertex="1" parent="1">
          <mxGeometry x="185" y="1488" width="30" height="30" as="geometry" />
        </mxCell>
        <mxCell id="246zIahvShKQUwR7lKEW-101" value="" style="edgeStyle=orthogonalEdgeStyle;rounded=0;orthogonalLoop=1;jettySize=auto;html=1;" edge="1" parent="1" source="246zIahvShKQUwR7lKEW-75" target="246zIahvShKQUwR7lKEW-100">
          <mxGeometry relative="1" as="geometry" />
        </mxCell>
        <mxCell id="246zIahvShKQUwR7lKEW-75" value="OUTPUT&lt;div&gt;&lt;div&gt;&quot;Haz alquilado una bicicleta por&quot;&lt;/div&gt;&lt;div&gt;&lt;span style=&quot;background-color: initial;&quot;&gt;hours1 , &quot; hora(s) con el tarifario de 1 boliviano(s)&quot;&lt;/span&gt;&lt;/div&gt;&lt;div&gt;&lt;span style=&quot;background-color: initial;&quot;&gt;hours2 , &quot; hora(s) con el tarifario de 2 boliviano(s)&quot;&lt;/span&gt;&lt;/div&gt;&lt;div&gt;&quot;El monto total a pagar es de &quot; &amp;lt;&amp;lt; tarifa1 + tarifa2 + tarifa3,&amp;nbsp;&lt;/div&gt;&lt;div&gt;&amp;nbsp;&quot; boliviano(s).&quot;&lt;/div&gt;&lt;/div&gt;" style="shape=parallelogram;perimeter=parallelogramPerimeter;whiteSpace=wrap;html=1;fixedSize=1;" vertex="1" parent="1">
          <mxGeometry x="420" y="1476.75" width="370" height="95.5" as="geometry" />
        </mxCell>
        <mxCell id="246zIahvShKQUwR7lKEW-83" value="" style="edgeStyle=orthogonalEdgeStyle;rounded=0;orthogonalLoop=1;jettySize=auto;html=1;" edge="1" parent="1" source="246zIahvShKQUwR7lKEW-77" target="246zIahvShKQUwR7lKEW-82">
          <mxGeometry relative="1" as="geometry" />
        </mxCell>
        <mxCell id="246zIahvShKQUwR7lKEW-87" value="" style="edgeStyle=orthogonalEdgeStyle;rounded=0;orthogonalLoop=1;jettySize=auto;html=1;" edge="1" parent="1" source="246zIahvShKQUwR7lKEW-77" target="246zIahvShKQUwR7lKEW-86">
          <mxGeometry relative="1" as="geometry" />
        </mxCell>
        <mxCell id="246zIahvShKQUwR7lKEW-77" value="debut &amp;lt;= 17&amp;nbsp;&lt;div&gt;and debut &amp;gt;= 7&amp;nbsp;&lt;span style=&quot;background-color: initial;&quot;&gt;and fin &amp;gt;= 17&amp;nbsp;&lt;/span&gt;&lt;div&gt;and fin &amp;lt;= 24&lt;br&gt;&lt;/div&gt;&lt;/div&gt;" style="rhombus;whiteSpace=wrap;html=1;" vertex="1" parent="1">
          <mxGeometry x="2.5" y="1649" width="192.5" height="89" as="geometry" />
        </mxCell>
        <mxCell id="246zIahvShKQUwR7lKEW-79" value="NO" style="text;html=1;align=center;verticalAlign=middle;resizable=0;points=[];autosize=1;strokeColor=none;fillColor=none;" vertex="1" parent="1">
          <mxGeometry x="100" y="1558" width="40" height="30" as="geometry" />
        </mxCell>
        <mxCell id="246zIahvShKQUwR7lKEW-80" value="SI" style="text;html=1;align=center;verticalAlign=middle;resizable=0;points=[];autosize=1;strokeColor=none;fillColor=none;" vertex="1" parent="1">
          <mxGeometry x="187.5" y="1660" width="30" height="30" as="geometry" />
        </mxCell>
        <mxCell id="246zIahvShKQUwR7lKEW-81" value="NO" style="text;html=1;align=center;verticalAlign=middle;resizable=0;points=[];autosize=1;strokeColor=none;fillColor=none;" vertex="1" parent="1">
          <mxGeometry x="100" y="1738" width="40" height="30" as="geometry" />
        </mxCell>
        <mxCell id="246zIahvShKQUwR7lKEW-82" value="FIN" style="ellipse;whiteSpace=wrap;html=1;" vertex="1" parent="1">
          <mxGeometry x="58.75" y="1768" width="80" height="80" as="geometry" />
        </mxCell>
        <mxCell id="246zIahvShKQUwR7lKEW-89" value="" style="edgeStyle=orthogonalEdgeStyle;rounded=0;orthogonalLoop=1;jettySize=auto;html=1;entryX=0;entryY=0.5;entryDx=0;entryDy=0;" edge="1" parent="1" source="246zIahvShKQUwR7lKEW-86" target="246zIahvShKQUwR7lKEW-88">
          <mxGeometry relative="1" as="geometry" />
        </mxCell>
        <mxCell id="246zIahvShKQUwR7lKEW-86" value="&lt;div&gt;hours1 = 17-debut&lt;/div&gt;&lt;div&gt;&lt;span style=&quot;background-color: initial;&quot;&gt;tarifa1 = (17-debut) * 2&lt;/span&gt;&lt;/div&gt;&lt;div&gt;&lt;span style=&quot;background-color: initial;&quot;&gt;hours2 = (fin-debut) - (17-debut)&lt;/span&gt;&lt;/div&gt;&lt;div&gt;&lt;span style=&quot;background-color: initial;&quot;&gt;tarifa2 = hours2 * 1&lt;/span&gt;&lt;/div&gt;" style="whiteSpace=wrap;html=1;" vertex="1" parent="1">
          <mxGeometry x="217.5" y="1660.25" width="182.5" height="66.5" as="geometry" />
        </mxCell>
        <mxCell id="246zIahvShKQUwR7lKEW-103" value="" style="edgeStyle=orthogonalEdgeStyle;rounded=0;orthogonalLoop=1;jettySize=auto;html=1;" edge="1" parent="1" source="246zIahvShKQUwR7lKEW-88" target="246zIahvShKQUwR7lKEW-102">
          <mxGeometry relative="1" as="geometry" />
        </mxCell>
        <mxCell id="246zIahvShKQUwR7lKEW-88" value="&lt;div&gt;OUTPUT&lt;/div&gt;&lt;div&gt;&quot;Haz alquilado una bicicleta por&quot;&lt;/div&gt;&lt;div&gt;&lt;span style=&quot;background-color: initial;&quot;&gt;hours2 ,&quot; hora(s) con el tarifario de 1 boliviano(s)&quot;&lt;/span&gt;&lt;/div&gt;&lt;div&gt;&lt;span style=&quot;background-color: initial;&quot;&gt;hours1 , &quot; hora(s) con el tarifario de 2 boliviano(s)&quot;&lt;/span&gt;&lt;/div&gt;&lt;div&gt;&lt;span style=&quot;background-color: initial;&quot;&gt;&quot;El monto total a pagar es de &quot; , tarifa1 + tarifa2 , &quot; boliviano(s).&quot;&lt;/span&gt;&lt;/div&gt;" style="shape=parallelogram;perimeter=parallelogramPerimeter;whiteSpace=wrap;html=1;fixedSize=1;" vertex="1" parent="1">
          <mxGeometry x="414" y="1643.63" width="376" height="99.75" as="geometry" />
        </mxCell>
        <mxCell id="246zIahvShKQUwR7lKEW-90" value="FIN" style="ellipse;whiteSpace=wrap;html=1;" vertex="1" parent="1">
          <mxGeometry x="380" y="330" width="80" height="80" as="geometry" />
        </mxCell>
        <mxCell id="246zIahvShKQUwR7lKEW-92" value="FIN" style="ellipse;whiteSpace=wrap;html=1;" vertex="1" parent="1">
          <mxGeometry x="730" y="875" width="80" height="80" as="geometry" />
        </mxCell>
        <mxCell id="246zIahvShKQUwR7lKEW-94" value="FIN" style="ellipse;whiteSpace=wrap;html=1;" vertex="1" parent="1">
          <mxGeometry x="730" y="1020" width="80" height="80" as="geometry" />
        </mxCell>
        <mxCell id="246zIahvShKQUwR7lKEW-96" value="FIN" style="ellipse;whiteSpace=wrap;html=1;" vertex="1" parent="1">
          <mxGeometry x="720.005" y="1184" width="80" height="80" as="geometry" />
        </mxCell>
        <mxCell id="246zIahvShKQUwR7lKEW-98" value="FIN" style="ellipse;whiteSpace=wrap;html=1;" vertex="1" parent="1">
          <mxGeometry x="790" y="1340.75" width="80" height="80" as="geometry" />
        </mxCell>
        <mxCell id="246zIahvShKQUwR7lKEW-100" value="FIN" style="ellipse;whiteSpace=wrap;html=1;" vertex="1" parent="1">
          <mxGeometry x="810" y="1484.5" width="80" height="80" as="geometry" />
        </mxCell>
        <mxCell id="246zIahvShKQUwR7lKEW-102" value="FIN" style="ellipse;whiteSpace=wrap;html=1;" vertex="1" parent="1">
          <mxGeometry x="800.01" y="1653.505" width="80" height="80" as="geometry" />
        </mxCell>
      </root>
    </mxGraphModel>
  </diagram>
</mxfile>
